REM DIRINDEX 1\2,1\3,1\4
REM DIRNAME folder01,folder02,folder03,folder04
TITLE ""
FILE "002 002_TOEFL_3900.mp3" MP3
  TRACK 01 AUDIO
    TITLE "2:cjc151_0047"
    INDEX 01 00:00:00
  TRACK 02 AUDIO
    TITLE "0:"
    INDEX 01 00:01:30
  TRACK 03 AUDIO
    TITLE "3:cjc151_0048"
    INDEX 01 00:03:10
  TRACK 04 AUDIO
    TITLE "0:"
    INDEX 01 00:06:67
  TRACK 05 AUDIO
    TITLE "2:cjc151_0049"
    INDEX 01 00:08:44
  TRACK 06 AUDIO
    TITLE "0:"
    INDEX 01 00:09:55
  TRACK 07 AUDIO
    TITLE "3:cjc151_0050"
    INDEX 01 00:11:37
  TRACK 08 AUDIO
    TITLE "0:"
    INDEX 01 00:15:32
  TRACK 09 AUDIO
    TITLE "2:cjc151_0051"
    INDEX 01 00:17:12
  TRACK 10 AUDIO
    TITLE "0:"
    INDEX 01 00:18:33
  TRACK 11 AUDIO
    TITLE "3:cjc151_0052"
    INDEX 01 00:20:12
  TRACK 12 AUDIO
    TITLE "0:"
    INDEX 01 00:23:67
  TRACK 13 AUDIO
    TITLE "2:cjc151_0053"
    INDEX 01 00:25:46
  TRACK 14 AUDIO
    TITLE "0:"
    INDEX 01 00:26:66
  TRACK 15 AUDIO
    TITLE "3:cjc151_0054"
    INDEX 01 00:28:43
  TRACK 16 AUDIO
    TITLE "0:"
    INDEX 01 00:31:63
  TRACK 17 AUDIO
    TITLE "2:cjc151_0055"
    INDEX 01 00:33:44
  TRACK 18 AUDIO
    TITLE "0:"
    INDEX 01 00:34:59
  TRACK 19 AUDIO
    TITLE "3:cjc151_0056"
    INDEX 01 00:36:38
  TRACK 20 AUDIO
    TITLE "0:"
    INDEX 01 00:40:58
  TRACK 21 AUDIO
    TITLE "2:cjc151_0057"
    INDEX 01 00:42:37
  TRACK 22 AUDIO
    TITLE "0:"
    INDEX 01 00:43:46
  TRACK 23 AUDIO
    TITLE "3:cjc151_0058"
    INDEX 01 00:45:28
  TRACK 24 AUDIO
    TITLE "0:"
    INDEX 01 00:49:25
  TRACK 25 AUDIO
    TITLE "2:cjc151_0059"
    INDEX 01 00:51:05
  TRACK 26 AUDIO
    TITLE "0:"
    INDEX 01 00:52:14
  TRACK 27 AUDIO
    TITLE "3:cjc151_0060"
    INDEX 01 00:53:70
  TRACK 28 AUDIO
    TITLE "0:"
    INDEX 01 00:58:11
  TRACK 29 AUDIO
    TITLE "2:cjc151_0061"
    INDEX 01 00:59:65
  TRACK 30 AUDIO
    TITLE "0:"
    INDEX 01 01:00:70
  TRACK 31 AUDIO
    TITLE "3:cjc151_0062"
    INDEX 01 01:02:50
  TRACK 32 AUDIO
    TITLE "0:"
    INDEX 01 01:06:53
  TRACK 33 AUDIO
    TITLE "2:cjc151_0063"
    INDEX 01 01:08:35
  TRACK 34 AUDIO
    TITLE "0:"
    INDEX 01 01:09:46
  TRACK 35 AUDIO
    TITLE "3:cjc151_0064"
    INDEX 01 01:11:27
  TRACK 36 AUDIO
    TITLE "0:"
    INDEX 01 01:15:33
  TRACK 37 AUDIO
    TITLE "2:cjc151_0065"
    INDEX 01 01:17:12
  TRACK 38 AUDIO
    TITLE "0:"
    INDEX 01 01:18:33
  TRACK 39 AUDIO
    TITLE "3:cjc151_0066"
    INDEX 01 01:20:12
  TRACK 40 AUDIO
    TITLE "0:"
    INDEX 01 01:23:69
  TRACK 41 AUDIO
    TITLE "2:cjc151_0067"
    INDEX 01 01:25:49
  TRACK 42 AUDIO
    TITLE "0:"
    INDEX 01 01:28:24
  TRACK 43 AUDIO
    TITLE "3:cjc151_0068"
    INDEX 01 01:30:03
  TRACK 44 AUDIO
    TITLE "0:"
    INDEX 01 01:33:70
  TRACK 45 AUDIO
    TITLE "2:cjc151_0069"
    INDEX 01 01:35:49
  TRACK 46 AUDIO
    TITLE "0:"
    INDEX 01 01:36:60
  TRACK 47 AUDIO
    TITLE "3:cjc151_0070"
    INDEX 01 01:38:42
  TRACK 48 AUDIO
    TITLE "0:"
    INDEX 01 01:42:24
  TRACK 49 AUDIO
    TITLE "2:cjc151_0071"
    INDEX 01 01:44:03
  TRACK 50 AUDIO
    TITLE "0:"
    INDEX 01 01:45:22
  TRACK 51 AUDIO
    TITLE "3:cjc151_0072"
    INDEX 01 01:46:74
  TRACK 52 AUDIO
    TITLE "0:"
    INDEX 01 01:51:28
  TRACK 53 AUDIO
    TITLE "2:cjc151_0073"
    INDEX 01 01:53:08
  TRACK 54 AUDIO
    TITLE "0:"
    INDEX 01 01:55:73
  TRACK 55 AUDIO
    TITLE "3:cjc151_0074"
    INDEX 01 01:57:55
  TRACK 56 AUDIO
    TITLE "0:"
    INDEX 01 02:01:19
  TRACK 57 AUDIO
    TITLE "2:cjc151_0075"
    INDEX 01 02:02:71
  TRACK 58 AUDIO
    TITLE "0:"
    INDEX 01 02:04:13
  TRACK 59 AUDIO
    TITLE "3:cjc151_0076"
    INDEX 01 02:06:05
  TRACK 60 AUDIO
    TITLE "0:"
    INDEX 01 02:10:16
  TRACK 61 AUDIO
    TITLE "2:cjc151_0077"
    INDEX 01 02:11:68
  TRACK 62 AUDIO
    TITLE "0:"
    INDEX 01 02:12:74
  TRACK 63 AUDIO
    TITLE "3:cjc151_0078"
    INDEX 01 02:14:47
  TRACK 64 AUDIO
    TITLE "0:"
    INDEX 01 02:18:49
  TRACK 65 AUDIO
    TITLE "2:cjc151_0079"
    INDEX 01 02:20:26
  TRACK 66 AUDIO
    TITLE "0:"
    INDEX 01 02:21:35
  TRACK 67 AUDIO
    TITLE "3:cjc151_0080"
    INDEX 01 02:23:13
  TRACK 68 AUDIO
    TITLE "0:"
    INDEX 01 02:27:28
  TRACK 69 AUDIO
    TITLE "2:cjc151_0081"
    INDEX 01 02:29:08
  TRACK 70 AUDIO
    TITLE "0:"
    INDEX 01 02:30:13
  TRACK 71 AUDIO
    TITLE "3:cjc151_0082"
    INDEX 01 02:31:67
  TRACK 72 AUDIO
    TITLE "0:"
    INDEX 01 02:35:63
  TRACK 73 AUDIO
    TITLE "2:cjc151_0083"
    INDEX 01 02:37:44
  TRACK 74 AUDIO
    TITLE "0:"
    INDEX 01 02:38:69
  TRACK 75 AUDIO
    TITLE "3:cjc151_0084"
    INDEX 01 02:40:50
  TRACK 76 AUDIO
    TITLE "0:"
    INDEX 01 02:45:34
  TRACK 77 AUDIO
    TITLE "2:cjc151_0085"
    INDEX 01 02:47:11
  TRACK 78 AUDIO
    TITLE "0:"
    INDEX 01 02:48:24
  TRACK 79 AUDIO
    TITLE "3:cjc151_0086"
    INDEX 01 02:50:00
  TRACK 80 AUDIO
    TITLE "0:"
    INDEX 01 02:54:11
  TRACK 81 AUDIO
    TITLE "2:cjc151_0087"
    INDEX 01 02:55:66
  TRACK 82 AUDIO
    TITLE "0:"
    INDEX 01 02:57:00
  TRACK 83 AUDIO
    TITLE "3:cjc151_0088"
    INDEX 01 02:58:52
  TRACK 84 AUDIO
    TITLE "0:"
    INDEX 01 03:01:64
  TRACK 85 AUDIO
    TITLE "2:cjc151_0089"
    INDEX 01 03:03:48
  TRACK 86 AUDIO
    TITLE "0:"
    INDEX 01 03:04:47
  TRACK 87 AUDIO
    TITLE "3:cjc151_0090"
    INDEX 01 03:06:26
  TRACK 88 AUDIO
    TITLE "0:"
    INDEX 01 03:10:12
